<svg xmlns="http://www.w3.org/2000/svg" xmlns:xlink="http://www.w3.org/1999/xlink" id="processonSvg1000" viewBox="124.0 18.0 585.0 381.0" width="585.0" height="381.0"><defs id="ProcessOnDefs1001"><marker id="ProcessOnMarker1031" markerUnits="userSpaceOnUse" orient="auto" markerWidth="16.23606797749979" markerHeight="10.550836550532098" viewBox="-1.0 -1.3763819204711736 16.23606797749979 10.550836550532098" refX="-1.0" refY="3.8990363547948754"><path id="ProcessOnPath1032" d="M12.0 3.8990363547948754L0.0 7.798072709589751V0.0Z" stroke="#323232" stroke-width="2.0" fill="#323232" transform="matrix(1.0,0.0,0.0,1.0,0.0,0.0)"/></marker><marker id="ProcessOnMarker1035" markerUnits="userSpaceOnUse" orient="auto" markerWidth="16.23606797749979" markerHeight="10.550836550532098" viewBox="-1.0 -1.3763819204711736 16.23606797749979 10.550836550532098" refX="-1.0" refY="3.8990363547948754"><path id="ProcessOnPath1036" d="M12.0 3.8990363547948754L0.0 7.798072709589751V0.0Z" stroke="#323232" stroke-width="2.0" fill="#323232" transform="matrix(1.0,0.0,0.0,1.0,0.0,0.0)"/></marker><marker id="ProcessOnMarker1043" markerUnits="userSpaceOnUse" orient="auto" markerWidth="16.23606797749979" markerHeight="10.550836550532098" viewBox="-1.0 -1.3763819204711736 16.23606797749979 10.550836550532098" refX="-1.0" refY="3.8990363547948754"><path id="ProcessOnPath1044" d="M12.0 3.8990363547948754L0.0 7.798072709589751V0.0Z" stroke="#323232" stroke-width="2.0" fill="#323232" transform="matrix(1.0,0.0,0.0,1.0,0.0,0.0)"/></marker><marker id="ProcessOnMarker1047" markerUnits="userSpaceOnUse" orient="auto" markerWidth="16.23606797749979" markerHeight="10.550836550532098" viewBox="-1.0 -1.3763819204711736 16.23606797749979 10.550836550532098" refX="-1.0" refY="3.8990363547948754"><path id="ProcessOnPath1048" d="M12.0 3.8990363547948754L0.0 7.798072709589751V0.0Z" stroke="#323232" stroke-width="2.0" fill="#323232" transform="matrix(1.0,0.0,0.0,1.0,0.0,0.0)"/></marker><marker id="ProcessOnMarker1051" markerUnits="userSpaceOnUse" orient="auto" markerWidth="16.23606797749979" markerHeight="10.550836550532098" viewBox="-1.0 -1.3763819204711736 16.23606797749979 10.550836550532098" refX="-1.0" refY="3.8990363547948754"><path id="ProcessOnPath1052" d="M12.0 3.8990363547948754L0.0 7.798072709589751V0.0Z" stroke="#323232" stroke-width="2.0" fill="#323232" transform="matrix(1.0,0.0,0.0,1.0,0.0,0.0)"/></marker><marker id="ProcessOnMarker1059" markerUnits="userSpaceOnUse" orient="auto" markerWidth="16.23606797749979" markerHeight="10.550836550532098" viewBox="-1.0 -1.3763819204711736 16.23606797749979 10.550836550532098" refX="-1.0" refY="3.8990363547948754"><path id="ProcessOnPath1060" d="M12.0 3.8990363547948754L0.0 7.798072709589751V0.0Z" stroke="#323232" stroke-width="2.0" fill="#323232" transform="matrix(1.0,0.0,0.0,1.0,0.0,0.0)"/></marker></defs><g id="ProcessOnG1002"><path id="ProcessOnPath1003" d="M124.0 18.0H709.0V399.0H124.0V18.0Z" fill="none"/><g id="ProcessOnG1004"><g id="ProcessOnG1005" transform="matrix(1.0,0.0,0.0,1.0,194.0,275.0)" opacity="1.0"><path id="ProcessOnPath1006" d="M16.666666666666668 0.0L83.33333333333333 0.0C105.55555555555556 0.0 105.55555555555556 50.0 83.33333333333333 50.0L16.666666666666668 50.0C-5.555555555555556 50.0 -5.555555555555556 0.0 16.666666666666668 0.0Z" stroke="#323232" stroke-width="2.0" stroke-dasharray="none" opacity="1.0" fill="#ffcc99"/><g id="ProcessOnG1007" transform="matrix(1.0,0.0,0.0,1.0,10.0,16.875)"><text id="ProcessOnText1008" fill="#000000" font-size="13" x="39.0" y="13.325" font-family="Garamond" font-weight="normal" font-style="normal" text-decoration="none" family="Garamond" text-anchor="middle" size="13">Props</text></g></g><g id="ProcessOnG1009" transform="matrix(1.0,0.0,0.0,1.0,506.0,277.0)" opacity="1.0"><path id="ProcessOnPath1010" d="M15.333333333333334 0.0L167.66666666666666 0.0C188.11111111111111 0.0 188.11111111111111 46.0 167.66666666666666 46.0L15.333333333333334 46.0C-5.111111111111112 46.0 -5.111111111111112 0.0 15.333333333333334 0.0Z" stroke="#323232" stroke-width="2.0" stroke-dasharray="none" opacity="1.0" fill="#ffcc99"/><g id="ProcessOnG1011" transform="matrix(1.0,0.0,0.0,1.0,10.0,14.875)"><text id="ProcessOnText1012" fill="#000000" font-size="13" x="80.5" y="13.325" font-family="Garamond" font-weight="normal" font-style="normal" text-decoration="none" family="Garamond" text-anchor="middle" size="13">WrappedComponent</text></g></g><g id="ProcessOnG1013" transform="matrix(1.0,0.0,0.0,1.0,354.5,117.0)" opacity="1.0"><path id="ProcessOnPath1014" d="M0.0 0.0L105.5 0.0L105.5 40.0L0.0 40.0Z" stroke="#323232" stroke-width="2.0" stroke-dasharray="none" opacity="1.0" fill="#99ccff"/><g id="ProcessOnG1015" transform="matrix(1.0,0.0,0.0,1.0,10.0,11.875)"><text id="ProcessOnText1016" fill="#000000" font-size="13" x="41.75" y="13.325" font-family="Garamond" font-weight="normal" font-style="normal" text-decoration="none" family="Garamond" text-anchor="middle" size="13">Actions</text></g></g><g id="ProcessOnG1017" transform="matrix(1.0,0.0,0.0,1.0,357.25,182.0)" opacity="1.0"><path id="ProcessOnPath1018" d="M0.0 0.0L100.0 0.0L100.0 28.0L0.0 28.0Z" stroke="#323232" stroke-width="2.0" stroke-dasharray="none" opacity="1.0" fill="#99ccff"/><g id="ProcessOnG1019" transform="matrix(1.0,0.0,0.0,1.0,10.0,5.875)"><text id="ProcessOnText1020" fill="#000000" font-size="13" x="39.0" y="13.325" font-family="Garamond" font-weight="normal" font-style="normal" text-decoration="none" family="Garamond" text-anchor="middle" size="13">Reducer</text></g></g><g id="ProcessOnG1021" transform="matrix(1.0,0.0,0.0,1.0,332.0,38.0)" opacity="1.0"><path id="ProcessOnPath1022" d="M0.0 0.0L156.0 0.0L156.0 341.0L0.0 341.0Z" stroke="#323232" stroke-width="2.0" stroke-dasharray="none" opacity="1.0" fill="none"/><path id="ProcessOnPath1023" d="M0.0 0.0L156.0 0.0L156.0 40.0L0.0 40.0Z" stroke="#323232" stroke-width="2.0" stroke-dasharray="none" opacity="1.0" fill="#ffffff"/></g><g id="ProcessOnG1024" transform="matrix(1.0,0.0,0.0,1.0,332.0,78.0)" opacity="1.0"><path id="ProcessOnPath1025" d="M0.0 0.0L156.0 0.0L156.0 301.0L0.0 301.0Z" stroke="#323232" stroke-width="2.0" stroke-dasharray="none" opacity="1.0" fill="none"/><path id="ProcessOnPath1026" d="M0.0 0.0L156.0 0.0L156.0 30.0L0.0 30.0Z" stroke="#323232" stroke-width="2.0" stroke-dasharray="none" opacity="1.0" fill="#ffffff"/><g id="ProcessOnG1027" transform="matrix(1.0,0.0,0.0,1.0,10.0,6.875)"><text id="ProcessOnText1028" fill="#000000" font-size="13" x="67.0" y="13.325" font-family="Garamond" font-weight="normal" font-style="normal" text-decoration="none" family="Garamond" text-anchor="middle" size="13">Connect-Alike HOC</text></g></g><g id="ProcessOnG1029"><path id="ProcessOnPath1030" d="M597.5 277.0L597.5 137.0L475.2360679774998 137.0" stroke="#323232" stroke-width="2.0" stroke-dasharray="none" fill="none" marker-end="url(#ProcessOnMarker1031)"/></g><g id="ProcessOnG1033"><path id="ProcessOnPath1034" d="M407.25 157.0L407.25 169.5L407.25 169.5L407.25 170.5" stroke="#323232" stroke-width="2.0" stroke-dasharray="none" fill="none" marker-end="url(#ProcessOnMarker1035)"/></g><g id="ProcessOnG1037" transform="matrix(1.0,0.0,0.0,1.0,357.25,278.0)" opacity="1.0"><path id="ProcessOnPath1038" d="M16.666666666666668 0.0L100.0 0.0C83.33333333333333 0.0 83.33333333333333 44.0 100.0 44.0L16.666666666666668 44.0C-5.882352941176471 44.0 -5.882352941176471 0.0 14.285714285714286 0.0Z" stroke="#323232" stroke-width="2.0" stroke-dasharray="none" opacity="1.0" fill="#ffcc99"/><g id="ProcessOnG1039" transform="matrix(1.0,0.0,0.0,1.0,10.0,13.875)"><text id="ProcessOnText1040" fill="#000000" font-size="13" x="36.5" y="13.325" font-family="Garamond" font-weight="normal" font-style="normal" text-decoration="none" family="Garamond" text-anchor="middle" size="13">State</text></g></g><g id="ProcessOnG1041"><path id="ProcessOnPath1042" d="M407.25 210.0L407.25 244.0L407.25 244.0L407.25 262.7639320225002" stroke="#323232" stroke-width="2.0" stroke-dasharray="none" fill="none" marker-end="url(#ProcessOnMarker1043)"/></g><g id="ProcessOnG1045"><path id="ProcessOnPath1046" d="M451.75 300.0L478.875 300.0L478.875 300.0L490.7639320225002 300.0" stroke="#323232" stroke-width="2.0" stroke-dasharray="none" fill="none" marker-end="url(#ProcessOnMarker1047)"/></g><g id="ProcessOnG1049"><path id="ProcessOnPath1050" d="M294.0 300.0L325.625 300.0L325.625 300.0L342.0139320225002 300.0" stroke="#323232" stroke-width="2.0" stroke-dasharray="none" fill="none" marker-end="url(#ProcessOnMarker1051)"/></g><g id="ProcessOnG1053" transform="matrix(1.0,0.0,0.0,1.0,144.0,214.0)" opacity="1.0"><path id="ProcessOnPath1054" d="M0.0 0.0L105.0 0.0L105.0 27.0L0.0 27.0Z" stroke="#323232" stroke-width="2.0" stroke-dasharray="none" opacity="1.0" fill="#66b2ff"/><g id="ProcessOnG1055" transform="matrix(1.0,0.0,0.0,1.0,10.0,5.375)"><text id="ProcessOnText1056" fill="#000000" font-size="13" x="41.5" y="13.325" font-family="Garamond" font-weight="normal" font-style="normal" text-decoration="none" family="Garamond" text-anchor="middle" size="13">Callback</text></g></g><g id="ProcessOnG1057"><path id="ProcessOnPath1058" d="M407.25 210.0L407.25 227.5L264.2360679774998 227.5" stroke="#323232" stroke-width="2.0" stroke-dasharray="none" fill="none" marker-end="url(#ProcessOnMarker1059)"/><g id="ProcessOnG1061" transform="matrix(1.0,0.0,0.0,1.0,344.49303398874986,211.25)"><path id="ProcessOnPath1062" d="M0 0H46.0V32.5H0Z" fill="#fff" transform="matrix(1.0,0.0,0.0,1.0,-23.0,0.0)"/><text id="ProcessOnText1063" fill="#000000" font-size="13" x="0.0" y="13.325" font-family="Garamond" font-weight="normal" font-style="normal" text-decoration="none" family="Garamond" text-anchor="middle" size="13">action</text><text id="ProcessOnText1064" fill="#000000" font-size="13" x="0.0" y="29.575" font-family="Garamond" font-weight="normal" font-style="normal" text-decoration="none" family="Garamond" text-anchor="middle" size="13">nextState</text></g></g></g></g></svg>